<?xml version="1.0" encoding="UTF-8" standalone="no"?>
<!-- Generator: Adobe Illustrator 21.0.0, SVG Export Plug-In . SVG Version: 6.00 Build 0)  -->

<svg
   version="1.2"
   id="Ebene_1"
   x="0px"
   y="0px"
   viewBox="0 0 50 49.999999"
   overflow="scroll"
   xml:space="preserve"
   sodipodi:docname="logo_hsrm.svg"
   width="50"
   height="50"
   inkscape:version="1.2.1 (9c6d41e410, 2022-07-14)"
   xmlns:inkscape="http://www.inkscape.org/namespaces/inkscape"
   xmlns:sodipodi="http://sodipodi.sourceforge.net/DTD/sodipodi-0.dtd"
   xmlns="http://www.w3.org/2000/svg"
   xmlns:svg="http://www.w3.org/2000/svg"><defs
   id="defs94" /><sodipodi:namedview
   id="namedview92"
   pagecolor="#ffffff"
   bordercolor="#666666"
   borderopacity="1.0"
   inkscape:showpageshadow="2"
   inkscape:pageopacity="0.0"
   inkscape:pagecheckerboard="0"
   inkscape:deskcolor="#d1d1d1"
   showgrid="false"
   inkscape:lockguides="false"
   inkscape:zoom="8.5089935"
   inkscape:cx="70.866196"
   inkscape:cy="28.322974"
   inkscape:window-width="1680"
   inkscape:window-height="987"
   inkscape:window-x="1042"
   inkscape:window-y="100"
   inkscape:window-maximized="1"
   inkscape:current-layer="Ebene_1" />
<path
   fill="#e30613"
   d="M 49.366875,24.140253 48.05137,21.862406 c -0.306935,-0.513437 -0.866131,-0.852521 -1.503234,-0.861673 v 0 H 28.689782 l 2.882802,-4.99099 v 0 c 0.309283,-0.55239 0.297784,-1.200992 0.01361,-1.720999 l 0.0024,0.0021 -1.320004,-2.286999 C 30.117469,11.71052 29.888206,11.458494 29.583382,11.28203 29.278558,11.105565 28.944167,11.032351 28.614,11.045961 h -2.62843 c -0.598149,0.01384 -1.170955,0.323128 -1.494083,0.873172 l -2.885162,4.98889 -8.923427,-15.4570745 v 0.00469 C 12.362117,0.90559793 11.79377,0.59631563 11.204772,0.57801213 v 0 H 8.5601507 C 8.2325649,0.56182053 7.8979393,0.63526923 7.5910036,0.81619233 7.2885265,0.98585173 7.0592634,1.2425701 6.903449,1.5267437 L 5.5879433,3.8090499 C 5.3037696,4.333985 5.2854661,4.9870447 5.597095,5.5392004 L 14.525216,21.000733 H 3.3675874 c -0.6394494,0.0092 -1.1962983,0.348236 -1.5055806,0.861673 l -1.31550564,2.277847 c -0.17646456,0.275022 -0.27502188,0.600495 -0.27948043,0.954363 0,0.348471 0.10536248,0.678403 0.28417364,0.953425 l 1.31761773,2.288173 h 0.00235 C 2.1827909,28.835805 2.7326,29.17489 3.3675908,29.179583 v 0.0045 H 14.525216 L 5.6017882,44.647922 c -0.3163221,0.549809 -0.2980186,1.205215 -0.011498,1.72311 h -0.00235 l 1.3155057,2.286999 c 0.1558144,0.284174 0.3850776,0.536434 0.6875547,0.71501 0.3069357,0.174118 0.6415613,0.247567 0.9691471,0.233722 h 2.6446213 -0.0024 c 0.591344,-0.0183 1.159691,-0.329932 1.480472,-0.875283 v 0 l 8.923427,-15.454728 2.885149,4.991225 c 0.323128,0.54535 0.895934,0.85698 1.494083,0.870824 h 2.633124 c 0.325473,0.01831 0.657752,-0.0596 0.964688,-0.238415 0.304824,-0.174118 0.534087,-0.421684 0.687555,-0.719468 l 1.317617,-2.282541 h -0.0024 c 0.284173,-0.522354 0.295672,-1.173302 -0.01361,-1.723111 h 0.0024 l -2.880691,-4.991225 h 17.853896 v -0.0045 c 0.632644,-0.0047 1.1848,-0.343778 1.496429,-0.843369 l 1.317617,-2.288174 c 0.178811,-0.275021 0.284174,-0.604953 0.284174,-0.953425 0,-0.347062 -0.105363,-0.679341 -0.279481,-0.954363 z"
   id="path49"
   style="stroke-width:2.34661" />

</svg>
